<svg width="64" height="64" viewBox="0 0 64 64" fill="none" xmlns="http://www.w3.org/2000/svg">
  <!-- 光芒 -->
  <circle cx="32" cy="32" r="28" stroke="#D4A5A5" stroke-width="0.5" opacity="0.3"/>
  <circle cx="32" cy="32" r="22" stroke="#B8A9C9" stroke-width="0.5" opacity="0.25"/>
  <!-- 中心花朵 -->
  <ellipse cx="32" cy="24" rx="4" ry="7" fill="#D4A5A5" opacity="0.6" transform="rotate(0 32 32)"/>
  <ellipse cx="32" cy="24" rx="4" ry="7" fill="#B8A9C9" opacity="0.5" transform="rotate(60 32 32)"/>
  <ellipse cx="32" cy="24" rx="4" ry="7" fill="#E8B4B8" opacity="0.5" transform="rotate(120 32 32)"/>
  <ellipse cx="32" cy="24" rx="4" ry="7" fill="#C4B7D7" opacity="0.5" transform="rotate(180 32 32)"/>
  <ellipse cx="32" cy="24" rx="4" ry="7" fill="#F5D0C5" opacity="0.5" transform="rotate(240 32 32)"/>
  <ellipse cx="32" cy="24" rx="4" ry="7" fill="#FEDFE1" opacity="0.5" transform="rotate(300 32 32)"/>
  <circle cx="32" cy="32" r="4" fill="#D4A5A5" opacity="0.8"/>
  <!-- 葉片 -->
  <path d="M32 42 C28 48, 22 50, 18 48" stroke="#A8B5A0" stroke-width="1.2" fill="none" stroke-linecap="round" opacity="0.6"/>
  <path d="M32 42 C36 48, 42 50, 46 48" stroke="#A8B5A0" stroke-width="1.2" fill="none" stroke-linecap="round" opacity="0.6"/>
  <path d="M30 44 C26 44, 22 42, 20 39" stroke="#A8B5A0" stroke-width="0.8" fill="none" stroke-linecap="round" opacity="0.4"/>
  <path d="M34 44 C38 44, 42 42, 44 39" stroke="#A8B5A0" stroke-width="0.8" fill="none" stroke-linecap="round" opacity="0.4"/>
</svg>
