<svg xmlns="http://www.w3.org/2000/svg" viewBox="0 0 512 512">
  <rect width="512" height="512" rx="112" fill="#FFFCFA"/>
  <circle cx="256" cy="256" r="200" stroke="#D4A5A5" stroke-width="2" fill="none" opacity="0.3"/>
  <circle cx="256" cy="256" r="155" stroke="#B8A9C9" stroke-width="1.5" fill="none" opacity="0.25"/>
  <ellipse cx="256" cy="198" rx="28" ry="50" fill="#D4A5A5" opacity="0.6" transform="rotate(0 256 256)"/>
  <ellipse cx="256" cy="198" rx="28" ry="50" fill="#B8A9C9" opacity="0.5" transform="rotate(60 256 256)"/>
  <ellipse cx="256" cy="198" rx="28" ry="50" fill="#E8B4B8" opacity="0.5" transform="rotate(120 256 256)"/>
  <ellipse cx="256" cy="198" rx="28" ry="50" fill="#C4B7D7" opacity="0.5" transform="rotate(180 256 256)"/>
  <ellipse cx="256" cy="198" rx="28" ry="50" fill="#F5D0C5" opacity="0.5" transform="rotate(240 256 256)"/>
  <ellipse cx="256" cy="198" rx="28" ry="50" fill="#FEDFE1" opacity="0.5" transform="rotate(300 256 256)"/>
  <circle cx="256" cy="256" r="28" fill="#D4A5A5" opacity="0.8"/>
  <path d="M256 310 C232 340, 198 355, 165 347" stroke="#A8B5A0" stroke-width="5" fill="none" stroke-linecap="round" opacity="0.6"/>
  <path d="M256 310 C280 340, 314 355, 347 347" stroke="#A8B5A0" stroke-width="5" fill="none" stroke-linecap="round" opacity="0.6"/>
  <path d="M248 320 C224 320, 198 310, 180 290" stroke="#A8B5A0" stroke-width="3" fill="none" stroke-linecap="round" opacity="0.4"/>
  <path d="M264 320 C288 320, 314 310, 332 290" stroke="#A8B5A0" stroke-width="3" fill="none" stroke-linecap="round" opacity="0.4"/>
</svg>
